<?xml version="1.0" encoding="utf-8"?><svg xmlns="http://www.w3.org/2000/svg" xmlns:xlink="http://www.w3.org/1999/xlink"><symbol viewBox="0 0 329.269 329" id="close" xmlns="http://www.w3.org/2000/svg"><path d="M194.8 164.77L323.013 36.555c8.343-8.34 8.343-21.825 0-30.164-8.34-8.34-21.825-8.34-30.164 0L164.633 134.605 36.422 6.391c-8.344-8.34-21.824-8.34-30.164 0-8.344 8.34-8.344 21.824 0 30.164l128.21 128.215L6.259 292.984c-8.344 8.34-8.344 21.825 0 30.164a21.266 21.266 0 0015.082 6.25c5.46 0 10.922-2.09 15.082-6.25l128.21-128.214 128.216 128.214a21.273 21.273 0 0015.082 6.25c5.46 0 10.922-2.09 15.082-6.25 8.343-8.34 8.343-21.824 0-30.164zm0 0"/></symbol><symbol viewBox="0 0 20 20" id="instagram" xmlns="http://www.w3.org/2000/svg"><g clip-path="url(#bclip0)"><path d="M10.003 4.865a5.131 5.131 0 100 10.263 5.131 5.131 0 100-10.263zm0 8.463a3.33 3.33 0 113.33-3.33 3.33 3.33 0 01-3.33 3.33z"/><path d="M14.123.064c-1.84-.086-6.397-.082-8.239 0C4.266.139 2.838.53 1.687 1.68-.236 3.604.01 6.196.01 9.997c0 3.89-.217 6.422 1.677 8.316 1.931 1.93 4.56 1.677 8.316 1.677 3.854 0 5.184.003 6.546-.525 1.853-.719 3.25-2.375 3.388-5.349.086-1.84.081-6.397 0-8.24-.165-3.51-2.05-5.64-5.814-5.812zm2.913 16.976c-1.261 1.261-3.01 1.149-7.057 1.149-4.167 0-5.837.061-7.057-1.161-1.404-1.398-1.15-3.642-1.15-7.044 0-4.605-.472-7.92 4.149-8.157 1.061-.038 1.374-.05 4.046-.05l.038.025c4.44 0 7.925-.465 8.134 4.155.048 1.054.058 1.37.058 4.04 0 4.117.078 5.798-1.161 7.043z"/><path d="M15.338 5.862a1.2 1.2 0 100-2.399 1.2 1.2 0 000 2.399z"/></g><defs><clipPath id="bclip0"><path d="M0 0h20v20H0z"/></clipPath></defs></symbol><symbol viewBox="0 0 20 20" id="phone" xmlns="http://www.w3.org/2000/svg"><path d="M9.27 12.3c-1.656-1.41-2.762-3.15-3.343-4.14l-.434-.847c.151-.168 1.308-1.45 1.81-2.146.63-.873-.284-1.662-.284-1.662S4.449.844 3.864.316c-.586-.528-1.26-.235-1.26-.235C1.374.905.097 1.621.021 5.063c-.003 3.223 2.36 6.547 4.916 9.12 2.56 2.907 6.074 5.82 9.472 5.817 3.325-.078 4.016-1.4 4.811-2.674 0 0 .284-.697-.226-1.304-.51-.606-3.08-3.267-3.08-3.267s-.762-.946-1.606-.293c-.63.487-1.759 1.57-2.03 1.832 0 0-1.89-1.042-3.007-1.994z"/></symbol><symbol viewBox="0 0 21 18" id="telegram" xmlns="http://www.w3.org/2000/svg"><path d="M7.894 11.65l-.333 4.654c.476 0 .682-.203.93-.447l2.232-2.121 4.626 3.367c.848.47 1.446.223 1.674-.776L20.06 2.184c.27-1.247-.453-1.735-1.28-1.43L.934 7.548c-1.218.47-1.2 1.145-.207 1.451l4.562 1.411 10.599-6.592c.498-.329.952-.147.579.181l-8.573 7.653z"/></symbol><symbol viewBox="0 0 15 15" id="user" xmlns="http://www.w3.org/2000/svg"><g clip-path="url(#eclip0)"><path d="M7.393 7.226c.993 0 1.852-.356 2.555-1.059a3.496 3.496 0 001.058-2.554c0-.993-.356-1.852-1.058-2.555A3.497 3.497 0 007.393 0 3.49 3.49 0 004.84 1.058a3.496 3.496 0 00-1.06 2.555c0 .992.356 1.852 1.059 2.554a3.497 3.497 0 002.554 1.059zm6.322 4.308a8.911 8.911 0 00-.122-.948 7.41 7.41 0 00-.233-.952 4.71 4.71 0 00-.392-.89 3.353 3.353 0 00-.59-.77 2.604 2.604 0 00-.849-.532 2.933 2.933 0 00-1.083-.196c-.153 0-.301.063-.587.249l-.612.394a3.505 3.505 0 01-.792.349 3.13 3.13 0 01-.968.156 3.14 3.14 0 01-.968-.156 3.497 3.497 0 01-.79-.349 83.648 83.648 0 01-.613-.394c-.286-.187-.434-.25-.587-.25-.39 0-.754.067-1.083.197-.33.13-.615.31-.849.533a3.354 3.354 0 00-.59.77 4.717 4.717 0 00-.392.889 7.485 7.485 0 00-.233.952 9.22 9.22 0 00-.122.949c-.02.287-.03.585-.03.885 0 .783.25 1.417.74 1.885.485.461 1.126.695 1.906.695H11.1c.78 0 1.421-.234 1.906-.695.491-.467.74-1.101.74-1.885 0-.302-.01-.6-.03-.886z"/></g><defs><clipPath id="eclip0"><path d="M0 0h15v15H0z"/></clipPath></defs></symbol><symbol viewBox="0 0 20 14" id="youtube" xmlns="http://www.w3.org/2000/svg"><path d="M19.03 2.054A2.349 2.349 0 0017.378.402C15.91 0 10.04 0 10.04 0S4.173 0 2.705.386a2.397 2.397 0 00-1.652 1.668C.667 3.522.667 6.564.667 6.564s0 3.058.386 4.51a2.35 2.35 0 001.652 1.653c1.483.401 7.337.401 7.337.401s5.869 0 7.336-.386a2.35 2.35 0 001.652-1.653c.386-1.467.386-4.51.386-4.51s.016-3.057-.386-4.525zM8.173 9.375V3.753l4.88 2.811-4.88 2.811z"/></symbol></svg>